<mxfile host="app.diagrams.net" agent="Mozilla/5.0 (Windows NT 10.0; Win64; x64) AppleWebKit/537.36 (KHTML, like Gecko) Chrome/141.0.0.0 Safari/537.36" version="28.2.8">
  <diagram id="8GdYdL5bLvOzT1qNkrrw" name="Sequence Diagram - Dang ky mon hoc">
    <mxGraphModel dx="834" dy="459" grid="0" gridSize="10" guides="1" tooltips="1" connect="1" arrows="1" fold="1" page="1" pageScale="1" pageWidth="850" pageHeight="1100" math="0" shadow="0">
      <root>
        <mxCell id="0" />
        <mxCell id="1" parent="0" />
        <mxCell id="IuEuRrJ-f9Qv0ENQeoUM-146" value="" style="shape=umlLifeline;perimeter=lifelinePerimeter;whiteSpace=wrap;html=1;container=1;dropTarget=0;collapsible=0;recursiveResize=0;outlineConnect=0;portConstraint=eastwest;newEdgeStyle={&quot;curved&quot;:0,&quot;rounded&quot;:0};participant=umlActor;" vertex="1" parent="1">
          <mxGeometry x="208" y="402" width="20" height="390" as="geometry" />
        </mxCell>
        <mxCell id="IuEuRrJ-f9Qv0ENQeoUM-147" value="" style="html=1;points=[[0,0,0,0,5],[0,1,0,0,-5],[1,0,0,0,5],[1,1,0,0,-5]];perimeter=orthogonalPerimeter;outlineConnect=0;targetShapes=umlLifeline;portConstraint=eastwest;newEdgeStyle={&quot;curved&quot;:0,&quot;rounded&quot;:0};" vertex="1" parent="IuEuRrJ-f9Qv0ENQeoUM-146">
          <mxGeometry x="5" y="66" width="10" height="324" as="geometry" />
        </mxCell>
        <mxCell id="IuEuRrJ-f9Qv0ENQeoUM-148" value="Student" style="text;align=center;fontStyle=1;verticalAlign=middle;spacingLeft=3;spacingRight=3;strokeColor=none;rotatable=0;points=[[0,0.5],[1,0.5]];portConstraint=eastwest;html=1;" vertex="1" parent="1">
          <mxGeometry x="178" y="442" width="80" height="26" as="geometry" />
        </mxCell>
        <mxCell id="IuEuRrJ-f9Qv0ENQeoUM-149" value="System" style="shape=umlLifeline;perimeter=lifelinePerimeter;whiteSpace=wrap;html=1;container=1;dropTarget=0;collapsible=0;recursiveResize=0;outlineConnect=0;portConstraint=eastwest;newEdgeStyle={&quot;curved&quot;:0,&quot;rounded&quot;:0};" vertex="1" parent="1">
          <mxGeometry x="393" y="392" width="100" height="400" as="geometry" />
        </mxCell>
        <mxCell id="IuEuRrJ-f9Qv0ENQeoUM-152" value="" style="html=1;points=[[0,0,0,0,5],[0,1,0,0,-5],[1,0,0,0,5],[1,1,0,0,-5]];perimeter=orthogonalPerimeter;outlineConnect=0;targetShapes=umlLifeline;portConstraint=eastwest;newEdgeStyle={&quot;curved&quot;:0,&quot;rounded&quot;:0};" vertex="1" parent="IuEuRrJ-f9Qv0ENQeoUM-149">
          <mxGeometry x="45" y="76" width="10" height="324" as="geometry" />
        </mxCell>
        <mxCell id="IuEuRrJ-f9Qv0ENQeoUM-170" value="" style="html=1;verticalAlign=bottom;labelBackgroundColor=none;endArrow=block;endFill=1;dashed=1;" edge="1" parent="1">
          <mxGeometry width="160" relative="1" as="geometry">
            <mxPoint x="441.5" y="765" as="sourcePoint" />
            <mxPoint x="222" y="765" as="targetPoint" />
            <Array as="points">
              <mxPoint x="314" y="765" />
            </Array>
          </mxGeometry>
        </mxCell>
        <mxCell id="IuEuRrJ-f9Qv0ENQeoUM-175" value="" style="endArrow=classic;html=1;rounded=0;" edge="1" parent="1" source="IuEuRrJ-f9Qv0ENQeoUM-146">
          <mxGeometry width="50" height="50" relative="1" as="geometry">
            <mxPoint x="435" y="605" as="sourcePoint" />
            <mxPoint x="438" y="555" as="targetPoint" />
          </mxGeometry>
        </mxCell>
        <mxCell id="IuEuRrJ-f9Qv0ENQeoUM-176" value="&amp;nbsp;1. gửi yêu cầu đăng ký" style="text;html=1;whiteSpace=wrap;strokeColor=none;fillColor=none;align=center;verticalAlign=middle;rounded=0;" vertex="1" parent="1">
          <mxGeometry x="231" y="527" width="176" height="30" as="geometry" />
        </mxCell>
        <mxCell id="IuEuRrJ-f9Qv0ENQeoUM-178" value="database" style="shape=umlLifeline;perimeter=lifelinePerimeter;whiteSpace=wrap;html=1;container=1;dropTarget=0;collapsible=0;recursiveResize=0;outlineConnect=0;portConstraint=eastwest;newEdgeStyle={&quot;curved&quot;:0,&quot;rounded&quot;:0};" vertex="1" parent="1">
          <mxGeometry x="587" y="392" width="100" height="400" as="geometry" />
        </mxCell>
        <mxCell id="IuEuRrJ-f9Qv0ENQeoUM-179" value="" style="html=1;points=[[0,0,0,0,5],[0,1,0,0,-5],[1,0,0,0,5],[1,1,0,0,-5]];perimeter=orthogonalPerimeter;outlineConnect=0;targetShapes=umlLifeline;portConstraint=eastwest;newEdgeStyle={&quot;curved&quot;:0,&quot;rounded&quot;:0};" vertex="1" parent="IuEuRrJ-f9Qv0ENQeoUM-178">
          <mxGeometry x="45" y="250" width="10" height="68" as="geometry" />
        </mxCell>
        <mxCell id="IuEuRrJ-f9Qv0ENQeoUM-180" value="" style="rounded=0;whiteSpace=wrap;html=1;" vertex="1" parent="1">
          <mxGeometry x="445" y="578" width="13" height="33" as="geometry" />
        </mxCell>
        <mxCell id="IuEuRrJ-f9Qv0ENQeoUM-184" value="" style="endArrow=classic;html=1;rounded=0;entryX=1;entryY=0.5;entryDx=0;entryDy=0;" edge="1" parent="1" source="IuEuRrJ-f9Qv0ENQeoUM-149" target="IuEuRrJ-f9Qv0ENQeoUM-180">
          <mxGeometry width="50" height="50" relative="1" as="geometry">
            <mxPoint x="531" y="605" as="sourcePoint" />
            <mxPoint x="503" y="611" as="targetPoint" />
            <Array as="points">
              <mxPoint x="495" y="570" />
              <mxPoint x="495" y="595" />
            </Array>
          </mxGeometry>
        </mxCell>
        <mxCell id="IuEuRrJ-f9Qv0ENQeoUM-185" value="2. kiểm tra" style="text;html=1;whiteSpace=wrap;strokeColor=none;fillColor=none;align=center;verticalAlign=middle;rounded=0;" vertex="1" parent="1">
          <mxGeometry x="499" y="570" width="60" height="30" as="geometry" />
        </mxCell>
        <mxCell id="IuEuRrJ-f9Qv0ENQeoUM-188" value="" style="endArrow=classic;html=1;rounded=0;" edge="1" parent="1" source="IuEuRrJ-f9Qv0ENQeoUM-149" target="IuEuRrJ-f9Qv0ENQeoUM-179">
          <mxGeometry width="50" height="50" relative="1" as="geometry">
            <mxPoint x="531" y="605" as="sourcePoint" />
            <mxPoint x="581" y="555" as="targetPoint" />
          </mxGeometry>
        </mxCell>
        <mxCell id="IuEuRrJ-f9Qv0ENQeoUM-189" value="3. ghi nhận đăng ký hợp lệ" style="text;html=1;whiteSpace=wrap;strokeColor=none;fillColor=none;align=center;verticalAlign=middle;rounded=0;" vertex="1" parent="1">
          <mxGeometry x="445" y="614" width="181" height="30" as="geometry" />
        </mxCell>
        <mxCell id="IuEuRrJ-f9Qv0ENQeoUM-190" value="4. xác nhận lưu thành công" style="html=1;verticalAlign=bottom;endArrow=open;dashed=1;endSize=8;curved=0;rounded=0;exitX=0;exitY=1;exitDx=0;exitDy=-5;exitPerimeter=0;" edge="1" parent="1" source="IuEuRrJ-f9Qv0ENQeoUM-179" target="IuEuRrJ-f9Qv0ENQeoUM-149">
          <mxGeometry relative="1" as="geometry">
            <mxPoint x="596" y="580" as="sourcePoint" />
            <mxPoint x="504" y="739" as="targetPoint" />
          </mxGeometry>
        </mxCell>
        <mxCell id="IuEuRrJ-f9Qv0ENQeoUM-191" value="5. đăng ký thành công" style="text;html=1;whiteSpace=wrap;strokeColor=none;fillColor=none;align=center;verticalAlign=middle;rounded=0;" vertex="1" parent="1">
          <mxGeometry x="228" y="733" width="189" height="30" as="geometry" />
        </mxCell>
      </root>
    </mxGraphModel>
  </diagram>
</mxfile>
